<?xml version="1.0" encoding="UTF-8" standalone="no"?>
<!-- Created with Inkscape (http://www.inkscape.org/) -->

<svg
   xmlns:dc="http://purl.org/dc/elements/1.1/"
   xmlns:cc="http://creativecommons.org/ns#"
   xmlns:rdf="http://www.w3.org/1999/02/22-rdf-syntax-ns#"
   xmlns:svg="http://www.w3.org/2000/svg"
   xmlns="http://www.w3.org/2000/svg"
   xmlns:sodipodi="http://sodipodi.sourceforge.net/DTD/sodipodi-0.dtd"
   xmlns:inkscape="http://www.inkscape.org/namespaces/inkscape"
   width="100"
   height="100"
   viewBox="0 0 100 100"
   id="svg4305"
   version="1.1"
   inkscape:version="0.91 r13725"
   sodipodi:docname="logo.svg">
  <defs
     id="defs4307" />
  <sodipodi:namedview
     id="base"
     pagecolor="#ffffff"
     bordercolor="#666666"
     borderopacity="1.0"
     inkscape:pageopacity="0.0"
     inkscape:pageshadow="2"
     inkscape:zoom="10.887087"
     inkscape:cx="31.761226"
     inkscape:cy="53.954216"
     inkscape:document-units="px"
     inkscape:current-layer="layer1"
     showgrid="false"
     units="px"
     inkscape:window-width="1280"
     inkscape:window-height="751"
     inkscape:window-x="0"
     inkscape:window-y="0"
     inkscape:window-maximized="1" />
  <metadata
     id="metadata4310">
    <rdf:RDF>
      <cc:Work
         rdf:about="">
        <dc:format>image/svg+xml</dc:format>
        <dc:type
           rdf:resource="http://purl.org/dc/dcmitype/StillImage" />
        <dc:title />
      </cc:Work>
    </rdf:RDF>
  </metadata>
  <g
     inkscape:label="Camada 1"
     inkscape:groupmode="layer"
     id="layer1"
     transform="translate(0,-952.36216)">
    <path
       style="fill:#ffffff"
       d="M 33.310547 30.519531 C 32.946478 30.507531 32.579014 30.507891 32.208984 30.525391 C 24.640089 30.877201 18.767337 37.323688 19.119141 44.892578 C 19.177871 46.156068 20.250186 47.130966 21.513672 47.072266 C 22.777158 47.013266 23.754036 45.943178 23.695312 44.679688 C 23.460774 39.633758 27.375943 35.336103 32.421875 35.101562 C 37.467229 34.867052 41.762394 38.780862 41.998047 43.826172 L 41.998047 43.828125 C 42.408495 52.658815 35.565018 60.763391 26.726562 60.587891 C 18.547483 60.425491 13.731488 53.313086 9.96875 45.316406 C 9.430225 44.171926 8.8377043 43.076056 7.5742188 43.134766 C 6.3107327 43.193466 5.331895 44.265807 5.390625 45.529297 C 5.818624 51.562887 11.348769 59.6901 18.929688 63.5 C 28.026318 68.0716 41.806233 64.669856 46.304688 48.660156 L 47.53125 49.777344 C 47.999267 50.202644 48.59594 50.400247 49.181641 50.373047 C 49.767336 50.345047 50.341028 50.093853 50.767578 49.626953 C 51.619475 48.692053 51.552145 47.244508 50.617188 46.392578 L 47.521484 43.570312 L 50.341797 40.474609 C 51.193694 39.539659 51.126357 38.092124 50.191406 37.240234 C 49.255888 36.388364 47.808923 36.455685 46.957031 37.390625 L 45.527344 38.957031 C 43.495748 34.106481 38.7716 30.699891 33.310547 30.519531 z "
       transform="translate(0,952.36216)"
       id="path4" />
    <text
       xml:space="preserve"
       style="font-style:normal;font-weight:normal;font-size:16.39527321px;line-height:125%;font-family:Hel;-inkscape-font-specification:Hel;letter-spacing:0px;word-spacing:0px;fill:#ffffff;fill-opacity:1;stroke:#ffffff;stroke-width:1px;stroke-linecap:butt;stroke-linejoin:miter;stroke-opacity:1;"
       x="55.013371"
       y="1000.9742"
       id="text4298"
       sodipodi:linespacing="125%"
       inkscape:export-xdpi="299.50558"
       inkscape:export-ydpi="299.50558"><tspan
         sodipodi:role="line"
         id="tspan4300"
         x="55.013371"
         y="1000.9742"
         style="font-style:normal;font-variant:normal;font-weight:normal;font-stretch:normal;font-family:Duepuntozero;-inkscape-font-specification:Duepuntozero;fill:#ffffff;stroke:#ffffff;">tudduu</tspan></text>
  </g>
</svg>
