<?xml version="1.0" encoding="UTF-8" standalone="no"?>
<!-- Created with Inkscape (http://www.inkscape.org/) -->

<svg
   xmlns:dc="http://purl.org/dc/elements/1.1/"
   xmlns:cc="http://creativecommons.org/ns#"
   xmlns:rdf="http://www.w3.org/1999/02/22-rdf-syntax-ns#"
   xmlns:svg="http://www.w3.org/2000/svg"
   xmlns="http://www.w3.org/2000/svg"
   xmlns:sodipodi="http://sodipodi.sourceforge.net/DTD/sodipodi-0.dtd"
   xmlns:inkscape="http://www.inkscape.org/namespaces/inkscape"
   width="100"
   height="100"
   viewBox="0 0 100 100"
   id="svg4305"
   version="1.1"
   inkscape:version="0.91 r13725"
   sodipodi:docname="logo_64.svg">
  <defs
     id="defs4307" />
  <sodipodi:namedview
     id="base"
     pagecolor="#ffffff"
     bordercolor="#666666"
     borderopacity="1.0"
     inkscape:pageopacity="0.0"
     inkscape:pageshadow="2"
     inkscape:zoom="2.6604533"
     inkscape:cx="-63.488933"
     inkscape:cy="70.59486"
     inkscape:document-units="px"
     inkscape:current-layer="layer1"
     showgrid="false"
     units="px"
     inkscape:window-width="1280"
     inkscape:window-height="751"
     inkscape:window-x="0"
     inkscape:window-y="0"
     inkscape:window-maximized="1"
     showguides="true"
     inkscape:guide-bbox="true">
    <sodipodi:guide
       position="-58.260748,45.480971"
       orientation="0,1"
       id="guide3349" />
    <sodipodi:guide
       position="-60.516003,25.93543"
       orientation="0,1"
       id="guide3351" />
  </sodipodi:namedview>
  <metadata
     id="metadata4310">
    <rdf:RDF>
      <cc:Work
         rdf:about="">
        <dc:format>image/svg+xml</dc:format>
        <dc:type
           rdf:resource="http://purl.org/dc/dcmitype/StillImage" />
        <dc:title />
      </cc:Work>
    </rdf:RDF>
  </metadata>
  <g
     inkscape:label="Camada 1"
     inkscape:groupmode="layer"
     id="layer1"
     transform="translate(0,-952.36216)">
    <rect
       style="color:#000000;clip-rule:nonzero;display:inline;overflow:visible;visibility:visible;opacity:1;isolation:auto;mix-blend-mode:normal;color-interpolation:sRGB;color-interpolation-filters:linearRGB;solid-color:#000000;solid-opacity:1;fill:none;fill-opacity:1;fill-rule:nonzero;stroke:none;stroke-width:7.5999999;stroke-linecap:round;stroke-linejoin:miter;stroke-miterlimit:10.19999981;stroke-dasharray:none;stroke-dashoffset:0;stroke-opacity:1;color-rendering:auto;image-rendering:auto;shape-rendering:auto;text-rendering:auto;enable-background:accumulate"
       id="rect3354"
       width="100.42287"
       height="44.79504"
       x="-0.29277802"
       y="976.14099"
       ry="0"
       inkscape:export-xdpi="299"
       inkscape:export-ydpi="299" />
    <path
       style="fill:#ffffff"
       d="M 33.310547 30.519531 C 32.946478 30.507531 32.579014 30.507891 32.208984 30.525391 C 24.640089 30.877201 18.767337 37.323688 19.119141 44.892578 C 19.177871 46.156068 20.250186 47.130966 21.513672 47.072266 C 22.777158 47.013266 23.754036 45.943178 23.695312 44.679688 C 23.460774 39.633758 27.375943 35.336103 32.421875 35.101562 C 37.467229 34.867052 41.762394 38.780862 41.998047 43.826172 L 41.998047 43.828125 C 42.408495 52.658815 35.565018 60.763391 26.726562 60.587891 C 18.547483 60.425491 13.731488 53.313086 9.96875 45.316406 C 9.430225 44.171926 8.8377043 43.076056 7.5742188 43.134766 C 6.3107327 43.193466 5.331895 44.265807 5.390625 45.529297 C 5.818624 51.562887 11.348769 59.6901 18.929688 63.5 C 28.026318 68.0716 41.806233 64.669856 46.304688 48.660156 L 47.53125 49.777344 C 47.999267 50.202644 48.59594 50.400247 49.181641 50.373047 C 49.767336 50.345047 50.341028 50.093853 50.767578 49.626953 C 51.619475 48.692053 51.552145 47.244508 50.617188 46.392578 L 47.521484 43.570312 L 50.341797 40.474609 C 51.193694 39.539659 51.126357 38.092124 50.191406 37.240234 C 49.255888 36.388364 47.808923 36.455685 46.957031 37.390625 L 45.527344 38.957031 C 43.495748 34.106481 38.7716 30.699891 33.310547 30.519531 z "
       transform="translate(0,952.36216)"
       id="path4"
       inkscape:export-xdpi="299"
       inkscape:export-ydpi="299" />
    <path
       style="font-style:normal;font-variant:normal;font-weight:normal;font-stretch:normal;font-size:medium;line-height:125%;font-family:Duepuntozero;-inkscape-font-specification:Duepuntozero;letter-spacing:0px;word-spacing:0px;fill:#ffffff;fill-opacity:1;stroke:#ffffff;stroke-width:1px;stroke-linecap:butt;stroke-linejoin:miter;stroke-opacity:1"
       d="M 74.378906 37.59375 C 74.204024 37.59375 74.055779 37.655157 73.935547 37.775391 C 73.815315 37.895617 73.755859 38.04191 73.755859 38.216797 L 73.755859 40.972656 C 73.504465 40.797776 73.230662 40.660873 72.935547 40.5625 C 72.651362 40.464133 72.350178 40.414062 72.033203 40.414062 C 71.628786 40.414062 71.247415 40.491511 70.886719 40.644531 C 70.526023 40.797551 70.208802 41.009943 69.935547 41.283203 C 69.673223 41.545523 69.458875 41.85805 69.294922 42.21875 C 69.141899 42.579443 69.066406 42.960821 69.066406 43.365234 L 69.066406 45.726562 C 69.066406 46.130982 69.141899 46.514307 69.294922 46.875 C 69.447944 47.2357 69.662292 47.550972 69.935547 47.824219 C 70.208802 48.086552 70.519375 48.294266 70.869141 48.447266 C 71.229837 48.600332 71.617856 48.677734 72.033203 48.677734 C 72.43762 48.677734 72.820945 48.600332 73.181641 48.447266 C 73.542337 48.294266 73.85291 48.086552 74.115234 47.824219 C 74.388489 47.550972 74.602837 47.2357 74.755859 46.875 C 74.919812 46.514307 75.001953 46.130982 75.001953 45.726562 L 75.001953 38.216797 C 75.001953 38.04191 74.93585 37.895617 74.804688 37.775391 C 74.684455 37.655157 74.542859 37.59375 74.378906 37.59375 z M 81.486328 37.59375 C 81.311445 37.59375 81.165154 37.655157 81.044922 37.775391 C 80.92469 37.895617 80.863281 38.04191 80.863281 38.216797 L 80.863281 40.972656 C 80.611887 40.797776 80.340037 40.660873 80.044922 40.5625 C 79.760737 40.464133 79.459553 40.414062 79.142578 40.414062 C 78.738161 40.414062 78.354837 40.491511 77.994141 40.644531 C 77.633445 40.797551 77.318177 41.009943 77.044922 41.283203 C 76.782597 41.545523 76.56825 41.85805 76.404297 42.21875 C 76.251274 42.579443 76.175781 42.960821 76.175781 43.365234 L 76.175781 45.726562 C 76.175781 46.130982 76.251274 46.514307 76.404297 46.875 C 76.55732 47.2357 76.771667 47.550972 77.044922 47.824219 C 77.318177 48.086552 77.62875 48.294266 77.978516 48.447266 C 78.339212 48.600332 78.727231 48.677734 79.142578 48.677734 C 79.546995 48.677734 79.93032 48.600332 80.291016 48.447266 C 80.651712 48.294266 80.962285 48.086552 81.224609 47.824219 C 81.497863 47.550972 81.710259 47.2357 81.863281 46.875 C 82.027234 46.514307 82.109375 46.130982 82.109375 45.726562 L 82.109375 38.216797 C 82.109375 38.04191 82.045224 37.895617 81.914062 37.775391 C 81.793831 37.655157 81.650281 37.59375 81.486328 37.59375 z M 56.177734 37.775391 C 56.002852 37.775391 55.854607 37.834851 55.734375 37.955078 C 55.614612 38.074843 55.555154 38.224445 55.554688 38.398438 L 55.554688 45.726562 C 55.554687 46.130982 55.630181 46.512354 55.783203 46.873047 C 55.947156 47.233747 56.161503 47.550972 56.423828 47.824219 C 56.697083 48.086552 57.014304 48.294266 57.375 48.447266 C 57.735696 48.600332 58.117068 48.677734 58.521484 48.677734 C 58.532414 48.677734 58.637241 48.672776 58.833984 48.662109 C 59.041658 48.651176 59.286128 48.589802 59.570312 48.480469 C 59.865428 48.371202 60.166612 48.190853 60.472656 47.939453 C 60.778702 47.68804 61.041162 47.322724 61.259766 46.841797 C 61.292552 46.76529 61.308594 46.687841 61.308594 46.611328 C 61.308594 46.447375 61.249138 46.30578 61.128906 46.185547 C 61.008674 46.054387 60.86043 45.988281 60.685547 45.988281 C 60.554385 45.988281 60.440169 46.027002 60.341797 46.103516 C 60.243428 46.169096 60.165981 46.262586 60.111328 46.382812 C 59.969236 46.710719 59.756841 46.96653 59.472656 47.152344 C 59.188472 47.338157 58.87125 47.431641 58.521484 47.431641 C 58.29195 47.431641 58.068213 47.388221 57.849609 47.300781 C 57.641936 47.213341 57.461616 47.09248 57.308594 46.939453 C 57.155571 46.775506 57.030013 46.590492 56.931641 46.382812 C 56.844199 46.175139 56.800781 45.956096 56.800781 45.726562 L 56.800781 41.726562 L 59.980469 41.726562 C 60.155352 41.726562 60.303596 41.665155 60.423828 41.544922 C 60.54406 41.413762 60.603516 41.267469 60.603516 41.103516 C 60.603516 40.928629 60.54406 40.78039 60.423828 40.660156 C 60.303596 40.53993 60.155352 40.480469 59.980469 40.480469 L 56.800781 40.480469 L 56.800781 38.398438 C 56.800781 38.223551 56.734678 38.075311 56.603516 37.955078 C 56.483284 37.834851 56.341687 37.775391 56.177734 37.775391 z M 62.597656 40.480469 C 62.422774 40.480469 62.274529 40.53993 62.154297 40.660156 C 62.034065 40.78039 61.974609 40.928629 61.974609 41.103516 L 61.974609 45.726562 C 61.974609 46.130982 62.050102 46.514307 62.203125 46.875 C 62.356148 47.2357 62.570496 47.550972 62.84375 47.824219 C 63.117005 48.086552 63.427578 48.294266 63.777344 48.447266 C 64.13804 48.600332 64.52606 48.677734 64.941406 48.677734 C 65.345824 48.677734 65.729148 48.600332 66.089844 48.447266 C 66.45054 48.294266 66.761114 48.086552 67.023438 47.824219 C 67.296692 47.550972 67.51104 47.2357 67.664062 46.875 C 67.828015 46.514307 67.910156 46.130983 67.910156 45.726562 L 67.910156 41.103516 C 67.910156 40.928629 67.844053 40.78039 67.712891 40.660156 C 67.592659 40.53993 67.451063 40.480469 67.287109 40.480469 C 67.112227 40.480469 66.963982 40.53993 66.84375 40.660156 C 66.723518 40.78039 66.664062 40.928629 66.664062 41.103516 L 66.664062 45.726562 C 66.664062 45.956096 66.613996 46.175139 66.515625 46.382812 C 66.428183 46.590493 66.307319 46.775506 66.154297 46.939453 C 66.001274 47.09248 65.81626 47.213341 65.597656 47.300781 C 65.389983 47.388221 65.17094 47.431641 64.941406 47.431641 C 64.700942 47.431641 64.477205 47.388221 64.269531 47.300781 C 64.061858 47.213341 63.876843 47.09248 63.712891 46.939453 C 63.559868 46.775506 63.439004 46.590493 63.351562 46.382812 C 63.264121 46.175139 63.220703 45.956096 63.220703 45.726562 L 63.220703 41.103516 C 63.220703 40.928629 63.1546 40.78039 63.023438 40.660156 C 62.903205 40.53993 62.761609 40.480469 62.597656 40.480469 z M 83.957031 40.480469 C 83.782149 40.480469 83.633904 40.53993 83.513672 40.660156 C 83.39344 40.78039 83.333984 40.928629 83.333984 41.103516 L 83.333984 45.726562 C 83.333984 46.130982 83.409477 46.514307 83.5625 46.875 C 83.715523 47.2357 83.927918 47.550972 84.201172 47.824219 C 84.474427 48.086552 84.786953 48.294266 85.136719 48.447266 C 85.497415 48.600332 85.885435 48.677734 86.300781 48.677734 C 86.705198 48.677734 87.088523 48.600332 87.449219 48.447266 C 87.809915 48.294266 88.120488 48.086552 88.382812 47.824219 C 88.656067 47.550972 88.868462 47.2357 89.021484 46.875 C 89.185437 46.514307 89.267578 46.130983 89.267578 45.726562 L 89.267578 41.103516 C 89.267578 40.928629 89.203428 40.78039 89.072266 40.660156 C 88.952034 40.53993 88.808484 40.480469 88.644531 40.480469 C 88.469649 40.480469 88.323357 40.53993 88.203125 40.660156 C 88.082893 40.78039 88.021484 40.928629 88.021484 41.103516 L 88.021484 45.726562 C 88.021484 45.956096 87.973371 46.175139 87.875 46.382812 C 87.787558 46.590493 87.666694 46.775506 87.513672 46.939453 C 87.360649 47.09248 87.175635 47.213341 86.957031 47.300781 C 86.749358 47.388221 86.530315 47.431641 86.300781 47.431641 C 86.060317 47.431641 85.83658 47.388221 85.628906 47.300781 C 85.421233 47.213341 85.234265 47.09248 85.070312 46.939453 C 84.91729 46.775506 84.798379 46.590493 84.710938 46.382812 C 84.623496 46.175139 84.580078 45.956096 84.580078 45.726562 L 84.580078 41.103516 C 84.580078 40.928629 84.513975 40.78039 84.382812 40.660156 C 84.26258 40.53993 84.120984 40.480469 83.957031 40.480469 z M 91.097656 40.480469 C 90.922774 40.480469 90.774529 40.53993 90.654297 40.660156 C 90.534065 40.78039 90.474609 40.928629 90.474609 41.103516 L 90.474609 45.726562 C 90.474609 46.130982 90.550102 46.514307 90.703125 46.875 C 90.856148 47.2357 91.070496 47.550972 91.34375 47.824219 C 91.617005 48.086552 91.927578 48.294266 92.277344 48.447266 C 92.63804 48.600332 93.02606 48.677734 93.441406 48.677734 C 93.845824 48.677734 94.229148 48.600332 94.589844 48.447266 C 94.95054 48.294266 95.261114 48.086552 95.523438 47.824219 C 95.796692 47.550972 96.01104 47.2357 96.164062 46.875 C 96.328015 46.514307 96.408203 46.130983 96.408203 45.726562 L 96.408203 41.103516 C 96.408203 40.928629 96.344053 40.78039 96.212891 40.660156 C 96.092659 40.53993 95.94911 40.480469 95.785156 40.480469 C 95.610274 40.480469 95.463982 40.53993 95.34375 40.660156 C 95.223518 40.78039 95.164062 40.928629 95.164062 41.103516 L 95.164062 45.726562 C 95.164063 45.956096 95.113996 46.175139 95.015625 46.382812 C 94.928183 46.590493 94.807319 46.775506 94.654297 46.939453 C 94.501274 47.09248 94.31626 47.213341 94.097656 47.300781 C 93.889983 47.388221 93.67094 47.431641 93.441406 47.431641 C 93.200942 47.431641 92.977205 47.388221 92.769531 47.300781 C 92.561858 47.213341 92.376843 47.09248 92.212891 46.939453 C 92.059868 46.775506 91.939004 46.590493 91.851562 46.382812 C 91.764121 46.175139 91.720703 45.956096 91.720703 45.726562 L 91.720703 41.103516 C 91.720703 40.928629 91.6546 40.78039 91.523438 40.660156 C 91.403205 40.53993 91.261609 40.480469 91.097656 40.480469 z M 72.033203 41.660156 C 72.273667 41.660156 72.497405 41.703576 72.705078 41.791016 C 72.912752 41.878456 73.093072 42.004015 73.246094 42.167969 C 73.410047 42.320989 73.537559 42.501311 73.625 42.708984 C 73.712441 42.916658 73.755859 43.135701 73.755859 43.365234 L 73.755859 45.726562 C 73.755859 45.956096 73.705794 46.175139 73.607422 46.382812 C 73.519981 46.590493 73.399116 46.775506 73.246094 46.939453 C 73.093072 47.09248 72.908057 47.213341 72.689453 47.300781 C 72.48178 47.388221 72.262737 47.431641 72.033203 47.431641 C 71.792739 47.431641 71.569001 47.388221 71.361328 47.300781 C 71.153655 47.213341 70.96864 47.09248 70.804688 46.939453 C 70.651665 46.775506 70.530801 46.590492 70.443359 46.382812 C 70.355918 46.175139 70.3125 45.956096 70.3125 45.726562 L 70.3125 43.365234 C 70.3125 43.135701 70.355918 42.916658 70.443359 42.708984 C 70.541731 42.501311 70.66729 42.320989 70.820312 42.167969 C 70.973335 42.004015 71.153655 41.878456 71.361328 41.791016 C 71.579932 41.703576 71.80367 41.660156 72.033203 41.660156 z M 79.142578 41.660156 C 79.383042 41.660156 79.60678 41.703576 79.814453 41.791016 C 80.022126 41.878456 80.202446 42.004015 80.355469 42.167969 C 80.519421 42.320989 80.644981 42.501311 80.732422 42.708984 C 80.819864 42.916658 80.863281 43.135701 80.863281 43.365234 L 80.863281 45.726562 C 80.863281 45.956096 80.815169 46.175139 80.716797 46.382812 C 80.629356 46.590493 80.508491 46.775506 80.355469 46.939453 C 80.202446 47.09248 80.017431 47.213341 79.798828 47.300781 C 79.591155 47.388221 79.372112 47.431641 79.142578 47.431641 C 78.902114 47.431641 78.678376 47.388221 78.470703 47.300781 C 78.263029 47.213341 78.076062 47.09248 77.912109 46.939453 C 77.759087 46.775506 77.640176 46.590493 77.552734 46.382812 C 77.465293 46.175139 77.421875 45.956096 77.421875 45.726562 L 77.421875 43.365234 C 77.421875 43.135701 77.465293 42.916658 77.552734 42.708984 C 77.651106 42.501311 77.776665 42.320989 77.929688 42.167969 C 78.082709 42.004015 78.263029 41.878456 78.470703 41.791016 C 78.689306 41.703576 78.913044 41.660156 79.142578 41.660156 z "
       transform="translate(0,952.36216)"
       id="path3361"
       inkscape:export-xdpi="299"
       inkscape:export-ydpi="299" />
    <text
       inkscape:export-ydpi="299.50558"
       inkscape:export-xdpi="299.50558"
       sodipodi:linespacing="125%"
       id="text3356"
       y="968.18304"
       x="-82.006752"
       style="font-style:normal;font-weight:normal;font-size:16.39527321px;line-height:125%;font-family:Hel;-inkscape-font-specification:Hel;letter-spacing:0px;word-spacing:0px;fill:#0000ff;fill-opacity:1;stroke:#ffffff;stroke-width:1px;stroke-linecap:butt;stroke-linejoin:miter;stroke-opacity:1;"
       xml:space="preserve"><tspan
         style="font-style:normal;font-variant:normal;font-weight:normal;font-stretch:normal;font-family:Duepuntozero;-inkscape-font-specification:Duepuntozero;fill:#0000ff;stroke:#ffffff;"
         y="968.18304"
         x="-82.006752"
         id="tspan3358"
         sodipodi:role="line">tudduu</tspan></text>
    <rect
       style="color:#000000;clip-rule:nonzero;display:inline;overflow:visible;visibility:visible;opacity:1;isolation:auto;mix-blend-mode:normal;color-interpolation:sRGB;color-interpolation-filters:linearRGB;solid-color:#000000;solid-opacity:1;fill:none;fill-opacity:1;fill-rule:nonzero;stroke:none;stroke-width:7.5999999;stroke-linecap:round;stroke-linejoin:miter;stroke-miterlimit:10.19999981;stroke-dasharray:none;stroke-dashoffset:0;stroke-opacity:1;color-rendering:auto;image-rendering:auto;shape-rendering:auto;text-rendering:auto;enable-background:accumulate"
       id="rect3539"
       width="136.06703"
       height="56.482487"
       x="-141.82579"
       y="995.12799"
       inkscape:export-xdpi="299"
       inkscape:export-ydpi="299" />
    <path
       inkscape:export-ydpi="299"
       inkscape:export-xdpi="299"
       id="path3541"
       d="m -101.49984,1000.5924 c -0.47563,-0.016 -0.9557,-0.016 -1.43911,0.013 -9.88819,0.4597 -17.5605,8.8814 -17.10089,18.7697 0.0767,1.6506 1.47763,2.9243 3.12828,2.8476 1.65064,-0.077 2.92685,-1.4751 2.85014,-3.1259 -0.3064,-6.592 4.80847,-12.2065 11.40059,-12.513 6.591382,-0.3063 12.202686,4.8067 12.510548,11.3981 l 0,0 c 0.536219,11.5366 -8.404262,22.1246 -19.951038,21.8952 -10.68534,-0.2121 -16.97708,-9.504 -21.8928,-19.9509 -0.70355,-1.4951 -1.47764,-2.9269 -3.12829,-2.8502 -1.65064,0.077 -2.92942,1.4776 -2.8527,3.1282 0.55915,7.8825 7.78387,18.5001 17.68775,23.4774 11.88406,5.9726 29.886488,1.5283 35.763377,-19.3872 l 1.602411,1.4596 c 0.611428,0.5556 1.390937,0.8138 2.15611,0.7782 0.765166,-0.037 1.514651,-0.3647 2.071906,-0.9746 1.112939,-1.2215 1.024977,-3.1125 -0.196473,-4.2256 l -4.044303,-3.687 3.684525,-4.0442 c 1.11294,-1.2215 1.024969,-3.1126 -0.196474,-4.2256 -1.222183,-1.1129 -3.112532,-1.025 -4.225465,0.1965 l -1.867777,2.0464 c -2.654127,-6.3369 -8.825867,-10.7873 -15.960317,-11.0229 z"
       style="fill:#ffffff"
       inkscape:connector-curvature="0" />
    <path
       inkscape:export-ydpi="299"
       inkscape:export-xdpi="299"
       id="path3543"
       d="m -44.522954,1008.8066 c -0.270573,0 -0.499933,0.095 -0.685952,0.281 -0.186019,0.1862 -0.278008,0.4125 -0.278008,0.683 l 0,4.2638 c -0.38895,-0.2705 -0.81257,-0.4824 -1.269163,-0.6346 -0.439683,-0.1517 -0.905665,-0.2296 -1.396079,-0.2296 -0.625703,0 -1.215749,0.1191 -1.773807,0.3565 -0.558058,0.2368 -1.048853,0.5655 -1.471624,0.9882 -0.405861,0.4059 -0.737494,0.8893 -0.991157,1.4475 -0.236753,0.5581 -0.353554,1.1481 -0.353554,1.7738 l 0,3.6533 c 0,0.6256 0.116798,1.2188 0.353554,1.7768 0.236751,0.5581 0.568384,1.0459 0.991157,1.4687 0.422771,0.4059 0.903281,0.7271 1.444428,0.9639 0.558059,0.2369 1.158389,0.3567 1.801003,0.3567 0.625701,0 1.218771,-0.1192 1.776829,-0.3567 0.558058,-0.2368 1.038566,-0.558 1.444428,-0.9639 0.422771,-0.4228 0.754404,-0.9106 0.991155,-1.4687 0.253664,-0.558 0.38075,-1.1512 0.38075,-1.7768 l 0,-11.6189 c 0,-0.2705 -0.102273,-0.4968 -0.305202,-0.683 -0.186022,-0.186 -0.405095,-0.281 -0.658758,-0.281 z m 10.996393,0 c -0.270574,0 -0.496912,0.095 -0.68293,0.281 -0.186019,0.1862 -0.281029,0.4125 -0.281029,0.683 l 0,4.2638 c -0.388951,-0.2705 -0.809548,-0.4824 -1.266142,-0.6346 -0.439683,-0.1517 -0.905665,-0.2296 -1.396079,-0.2296 -0.625703,0 -1.21877,0.1191 -1.776829,0.3565 -0.558058,0.2368 -1.045831,0.5655 -1.468603,0.9882 -0.405861,0.4059 -0.737493,0.8893 -0.991156,1.4475 -0.236753,0.5581 -0.353553,1.1481 -0.353553,1.7738 l 0,3.6533 c 0,0.6256 0.116796,1.2188 0.353553,1.7768 0.236752,0.5581 0.568384,1.0459 0.991156,1.4687 0.422772,0.4059 0.903282,0.7271 1.444429,0.9639 0.558058,0.2369 1.15839,0.3567 1.801003,0.3567 0.625701,0 1.218771,-0.1192 1.776828,-0.3567 0.558059,-0.2368 1.038568,-0.558 1.444428,-0.9639 0.422771,-0.4228 0.751383,-0.9106 0.988134,-1.4687 0.253663,-0.558 0.380749,-1.1512 0.380749,-1.7768 l 0,-11.6189 c 0,-0.2705 -0.09925,-0.4968 -0.302181,-0.683 -0.186019,-0.186 -0.408115,-0.281 -0.661778,-0.281 z m -39.156709,0.281 c -0.270571,0 -0.499933,0.092 -0.685951,0.2781 -0.185294,0.1854 -0.277287,0.4168 -0.278007,0.686 l 0,11.3378 c -2e-6,0.6256 0.116797,1.2159 0.353552,1.7739 0.253664,0.558 0.585294,1.0488 0.991156,1.4716 0.422772,0.4059 0.913567,0.7271 1.471625,0.9639 0.558058,0.2369 1.148105,0.3567 1.773806,0.3567 0.01691,0 0.179097,-0.016 0.483491,-0.025 0.321306,-0.017 0.699544,-0.1114 1.139225,-0.2812 0.456595,-0.1691 0.922578,-0.4481 1.39608,-0.837 0.473505,-0.3889 0.879576,-0.9542 1.217793,-1.6983 0.05073,-0.1192 0.07555,-0.2382 0.07555,-0.3565 0,-0.2537 -0.09199,-0.4728 -0.278009,-0.6588 -0.186018,-0.203 -0.415376,-0.3053 -0.685951,-0.3053 -0.20293,0 -0.379641,0.06 -0.531839,0.1785 -0.152195,0.1011 -0.272018,0.246 -0.356575,0.4321 -0.219841,0.5074 -0.548452,0.9031 -0.988135,1.1905 -0.43968,0.2875 -0.930477,0.4321 -1.471626,0.4321 -0.355127,0 -0.701286,-0.067 -1.039504,-0.2024 -0.321305,-0.1346 -0.600291,-0.3223 -0.837043,-0.5591 -0.236751,-0.2537 -0.431011,-0.5399 -0.58321,-0.8611 -0.135285,-0.3214 -0.202463,-0.6604 -0.202463,-1.0154 l 0,-6.1887 4.91952,0 c 0.270574,0 0.499932,-0.095 0.685951,-0.281 0.18602,-0.203 0.278008,-0.4294 0.278008,-0.683 0,-0.2705 -0.092,-0.4999 -0.278008,-0.6858 -0.186019,-0.1861 -0.415377,-0.2781 -0.685951,-0.2781 l -4.91952,0 0,-3.2212 c 0,-0.2706 -0.102272,-0.4999 -0.305203,-0.686 -0.186018,-0.186 -0.405094,-0.2781 -0.658757,-0.2781 z m 9.932713,4.1853 c -0.270571,0 -0.499932,0.092 -0.685951,0.278 -0.18602,0.186 -0.278008,0.4154 -0.278008,0.6861 l 0,7.1525 c 0,0.6256 0.116796,1.2188 0.353554,1.7768 0.236751,0.5581 0.568385,1.0459 0.991155,1.4687 0.422772,0.4059 0.903282,0.7271 1.444429,0.9639 0.558058,0.2369 1.158392,0.3567 1.801003,0.3567 0.625703,0 1.218771,-0.1192 1.776829,-0.3567 0.558058,-0.2368 1.03857,-0.558 1.444429,-0.9639 0.422771,-0.4228 0.754404,-0.9106 0.991154,-1.4687 0.253664,-0.558 0.38075,-1.1512 0.38075,-1.7768 l 0,-7.1525 c 0,-0.2707 -0.102272,-0.5001 -0.305202,-0.6861 -0.18602,-0.186 -0.405093,-0.278 -0.658758,-0.278 -0.270572,0 -0.499932,0.092 -0.685952,0.278 -0.186019,0.186 -0.278008,0.4154 -0.278008,0.6861 l 0,7.1525 c 0,0.355 -0.07746,0.694 -0.229657,1.0154 -0.135285,0.3212 -0.322285,0.6074 -0.559036,0.8611 -0.236753,0.2368 -0.523001,0.4239 -0.861218,0.5591 -0.321306,0.1345 -0.660203,0.2024 -1.015331,0.2024 -0.37204,0 -0.718197,-0.067 -1.039506,-0.2024 -0.321304,-0.1346 -0.607554,-0.3223 -0.861216,-0.5591 -0.236753,-0.2537 -0.42375,-0.5399 -0.559038,-0.8611 -0.135284,-0.3214 -0.202461,-0.6604 -0.202461,-1.0154 l 0,-7.1525 c 0,-0.2707 -0.102272,-0.5001 -0.305203,-0.6861 -0.18602,-0.186 -0.405094,-0.278 -0.658758,-0.278 z m 33.046594,0 c -0.270571,0 -0.499932,0.092 -0.685951,0.278 -0.18602,0.186 -0.278009,0.4154 -0.278009,0.6861 l 0,7.1525 c 0,0.6256 0.116797,1.2188 0.353555,1.7768 0.236751,0.5581 0.565362,1.0459 0.988133,1.4687 0.422773,0.4059 0.906304,0.7271 1.447451,0.9639 0.558058,0.2369 1.158392,0.3567 1.801002,0.3567 0.625702,0 1.218772,-0.1192 1.776829,-0.3567 0.558059,-0.2368 1.038568,-0.558 1.444429,-0.9639 0.422771,-0.4228 0.751382,-0.9106 0.988134,-1.4687 0.253662,-0.558 0.380748,-1.1512 0.380748,-1.7768 l 0,-7.1525 c 0,-0.2707 -0.09925,-0.5001 -0.30218,-0.6861 -0.18602,-0.186 -0.408116,-0.278 -0.66178,-0.278 -0.270571,0 -0.49691,0.092 -0.68293,0.278 -0.186018,0.186 -0.281028,0.4154 -0.281028,0.6861 l 0,7.1525 c 0,0.355 -0.07443,0.694 -0.226636,1.0154 -0.135285,0.3212 -0.322286,0.6074 -0.559037,0.8611 -0.236752,0.2368 -0.523001,0.4239 -0.861218,0.5591 -0.321306,0.1345 -0.660202,0.2024 -1.015331,0.2024 -0.372039,0 -0.718199,-0.067 -1.039505,-0.2024 -0.321305,-0.1346 -0.610577,-0.3223 -0.86424,-0.5591 -0.236752,-0.2537 -0.420726,-0.5399 -0.556013,-0.8611 -0.135285,-0.3214 -0.202462,-0.6604 -0.202462,-1.0154 l 0,-7.1525 c 0,-0.2707 -0.102272,-0.5001 -0.305204,-0.6861 -0.18602,-0.186 -0.405093,-0.278 -0.658757,-0.278 z m 11.047765,0 c -0.270573,0 -0.499933,0.092 -0.685953,0.278 -0.186019,0.186 -0.278007,0.4154 -0.278007,0.6861 l 0,7.1525 c 0,0.6256 0.116795,1.2188 0.353553,1.7768 0.236752,0.5581 0.568386,1.0459 0.991155,1.4687 0.422772,0.4059 0.903282,0.7271 1.44443,0.9639 0.558058,0.2369 1.158391,0.3567 1.801002,0.3567 0.625704,0 1.218771,-0.1192 1.776829,-0.3567 0.558059,-0.2368 1.03857,-0.558 1.444429,-0.9639 0.422771,-0.4228 0.754404,-0.9106 0.991155,-1.4687 0.253663,-0.558 0.377728,-1.1512 0.377728,-1.7768 l 0,-7.1525 c 0,-0.2707 -0.09925,-0.5001 -0.302182,-0.6861 -0.186018,-0.186 -0.408113,-0.278 -0.661778,-0.278 -0.270572,0 -0.49691,0.092 -0.68293,0.278 -0.18602,0.186 -0.278009,0.4154 -0.278009,0.6861 l 0,7.1525 c 2e-6,0.355 -0.07746,0.694 -0.229656,1.0154 -0.135286,0.3212 -0.322286,0.6074 -0.559036,0.8611 -0.236754,0.2368 -0.523002,0.4239 -0.861219,0.5591 -0.321305,0.1345 -0.660203,0.2024 -1.015331,0.2024 -0.372039,0 -0.718198,-0.067 -1.039505,-0.2024 -0.321306,-0.1346 -0.607555,-0.3223 -0.861217,-0.5591 -0.236752,-0.2537 -0.42375,-0.5399 -0.559038,-0.8611 -0.135284,-0.3214 -0.20246,-0.6604 -0.20246,-1.0154 l 0,-7.1525 c 0,-0.2707 -0.102273,-0.5001 -0.305203,-0.6861 -0.186021,-0.186 -0.405095,-0.278 -0.658757,-0.278 z m -29.495958,1.8252 c 0.372038,0 0.718199,0.067 1.039505,0.2025 0.321307,0.1347 0.600292,0.3295 0.837043,0.5831 0.253664,0.2368 0.450946,0.5159 0.586232,0.837 0.135286,0.3215 0.202462,0.6602 0.202462,1.0155 l 0,3.6533 c 0,0.355 -0.07744,0.694 -0.229657,1.0154 -0.135285,0.3212 -0.322286,0.6074 -0.559037,0.8611 -0.236751,0.2368 -0.523001,0.4239 -0.861218,0.5591 -0.321306,0.1345 -0.660202,0.2024 -1.01533,0.2024 -0.372039,0 -0.718201,-0.067 -1.039506,-0.2024 -0.321305,-0.1346 -0.607555,-0.3223 -0.861217,-0.5591 -0.236752,-0.2537 -0.423749,-0.5399 -0.559037,-0.8611 -0.135285,-0.3214 -0.202461,-0.6604 -0.202461,-1.0154 l 0,-3.6533 c 0,-0.3553 0.06718,-0.694 0.202461,-1.0155 0.152194,-0.3211 0.34646,-0.6002 0.58321,-0.837 0.236754,-0.2536 0.515739,-0.4479 0.837044,-0.5831 0.338218,-0.1361 0.684378,-0.2025 1.039506,-0.2025 z m 10.999415,0 c 0.372038,0 0.718199,0.067 1.039504,0.2025 0.321306,0.1347 0.600292,0.3295 0.837045,0.5831 0.253661,0.2368 0.447924,0.5159 0.58321,0.837 0.135285,0.3215 0.202462,0.6602 0.202462,1.0155 l 0,3.6533 c 0,0.355 -0.07443,0.694 -0.226637,1.0154 -0.135284,0.3212 -0.322284,0.6074 -0.559035,0.8611 -0.236753,0.2368 -0.523004,0.4239 -0.861219,0.5591 -0.321305,0.1345 -0.660202,0.2024 -1.01533,0.2024 -0.37204,0 -0.718201,-0.067 -1.039506,-0.2024 -0.321306,-0.1346 -0.610577,-0.3223 -0.86424,-0.5591 -0.236751,-0.2537 -0.420726,-0.5399 -0.556014,-0.8611 -0.135286,-0.3214 -0.202462,-0.6604 -0.202462,-1.0154 l 0,-3.6533 c 0,-0.3553 0.06718,-0.694 0.202462,-1.0155 0.152195,-0.3211 0.346459,-0.6002 0.583211,-0.837 0.23675,-0.2536 0.515737,-0.4479 0.837043,-0.5831 0.338216,-0.1361 0.684377,-0.2025 1.039506,-0.2025 z"
       style="font-style:normal;font-variant:normal;font-weight:normal;font-stretch:normal;font-size:medium;line-height:125%;font-family:Duepuntozero;-inkscape-font-specification:Duepuntozero;letter-spacing:0px;word-spacing:0px;fill:#ffffff;fill-opacity:1;stroke:#ffffff;stroke-width:1.54717028px;stroke-linecap:butt;stroke-linejoin:miter;stroke-opacity:1"
       inkscape:connector-curvature="0" />
  </g>
</svg>
